<svg xmlns="http://www.w3.org/2000/svg" xmlns:xlink="http://www.w3.org/1999/xlink" version="1.1" x="0" y="0" width="400" height="323" viewBox="0 0 400 323" enable-background="new 0 0 400 323" xml:space="preserve">
  <path d="M30.76 208.28l-3.33 5.39 -2.48-0.59L35.7 196l2.9 0.69 1.9 20.1 -2.56-0.61 -0.59-6.32L30.76 208.28zM37.3 207.86l-0.54-5.78c-0.12-1.31-0.14-2.48-0.16-3.62l-0.06-0.01c-0.54 1.04-1.11 2.1-1.74 3.14l-3.1 4.94L37.3 207.86z"/>
  <path d="M64.43 202.86l-2.63 11c-0.99 4.16 0.43 6.37 2.91 6.96 2.76 0.66 4.96-0.74 5.94-4.85l2.63-11 2.43 0.58 -2.59 10.84c-1.36 5.71-4.93 7.33-8.95 6.37 -3.81-0.91-6.15-3.77-4.78-9.54l2.61-10.95L64.43 202.86z"/>
  <path d="M94.71 210.35c1.51 0.13 3.29 0.38 5.19 0.83 3.45 0.82 5.71 2.21 6.98 4.11 1.29 1.91 1.74 4.29 1.03 7.3 -0.72 3.03-2.25 5.29-4.4 6.59 -2.15 1.32-5.25 1.58-8.86 0.71 -1.71-0.41-3.12-0.83-4.3-1.26L94.71 210.35zM93.18 227.36c0.58 0.25 1.46 0.49 2.39 0.72 5.13 1.22 8.6-0.98 9.8-6 1.07-4.38-0.74-7.75-5.82-8.97 -1.24-0.3-2.21-0.41-2.87-0.42L93.18 227.36z"/>
  <path d="M130.64 218.66l-4.44 18.59 -2.4-0.57 4.44-18.59L130.64 218.66z"/>
  <path d="M163.62 236.16c-1.53 6.4-6.23 8.86-10.97 7.73 -4.91-1.17-7.45-5.8-6.1-11.43 1.41-5.9 6-8.89 10.96-7.7C162.59 225.97 164.94 230.64 163.62 236.16zM149.13 233.02c-0.95 3.97 0.35 8.04 4.13 8.94 3.81 0.91 6.79-2.08 7.8-6.3 0.88-3.7-0.13-8.02-4.12-8.97C152.96 225.74 150.1 228.94 149.13 233.02z"/>
  <path d="M194.23 252.62c-1.17 0.13-3.44 0.26-5.95-0.34 -2.81-0.67-4.96-1.94-6.36-4.11 -1.23-1.93-1.63-4.65-0.94-7.54 1.35-5.54 6.12-8.68 12.36-7.19 2.15 0.51 3.72 1.38 4.43 1.96l-1.05 1.82c-0.89-0.68-2.04-1.33-3.92-1.78 -4.52-1.08-8.14 1.03-9.26 5.69 -1.13 4.71 1.05 8.18 5.38 9.21 1.57 0.38 2.7 0.41 3.32 0.27l1.32-5.54 -3.78-0.9 0.46-1.93 6.12 1.46L194.23 252.62z"/>
  <path d="M219.37 239.85l-2.63 11c-0.99 4.16 0.43 6.37 2.91 6.96 2.76 0.66 4.96-0.74 5.94-4.85l2.63-11 2.43 0.58 -2.59 10.84c-1.36 5.71-4.93 7.33-8.96 6.37 -3.8-0.91-6.15-3.77-4.78-9.54l2.61-10.95L219.37 239.85z"/>
  <path d="M252.1 247.67l-4.44 18.59 -2.4-0.57 4.44-18.59L252.1 247.67z"/>
  <path d="M271.01 252.45c1.51 0.13 3.29 0.38 5.19 0.83 3.45 0.82 5.71 2.21 6.98 4.11 1.29 1.91 1.74 4.29 1.03 7.3 -0.72 3.03-2.25 5.29-4.4 6.59 -2.15 1.32-5.24 1.58-8.86 0.71 -1.71-0.41-3.12-0.83-4.3-1.26L271.01 252.45zM269.49 269.45c0.58 0.25 1.46 0.49 2.39 0.72 5.13 1.22 8.6-0.98 9.8-6 1.07-4.38-0.74-7.76-5.82-8.97 -1.24-0.3-2.2-0.41-2.87-0.42L269.49 269.45z"/>
  <path d="M311.76 272.35l-7.22-1.73 -1.6 6.7 8.05 1.92 -0.48 2.01 -10.45-2.5 4.44-18.59 10.04 2.4 -0.48 2.01 -7.64-1.82 -1.4 5.87 7.22 1.73L311.76 272.35z"/>
  <path d="M62.71 37.15l33.33 7.96 -3.31 13.88 -18.03-4.3 -6.9 28.9 17.31 4.13 -3.31 13.88 -17.31-4.13L54.1 140.95l-15.31-3.66L62.71 37.15z"/>
  <path d="M147.25 57.34l-23.91 100.14 -15.31-3.66 23.91-100.14L147.25 57.34z"/>
  <path d="M183.88 66.08l15.31 3.66L178.59 156l16.88 4.03 -3.31 13.88 -32.19-7.69L183.88 66.08z"/>
  <path d="M271.55 192.87l-16.45-3.93 -3.16-52.62 -11.72 49.07 -15.31-3.66 23.91-100.14 15.31 3.66 -11.55 48.35 27.43-44.56 16.02 3.83 -28.92 45.11L271.55 192.87z"/>
  <path d="M354.33 193.88c-2.96 12.4-10.64 17.12-23.04 14.16l-8.15-1.95c-12.4-2.96-17.12-10.64-14.16-23.04l15.44-64.66c2.96-12.4 10.64-17.12 23.04-14.16l8.15 1.95c12.4 2.96 17.12 10.64 14.16 23.04L354.33 193.88zM354.29 126.28c0.93-3.91-0.51-6.32-4.32-7.23l-3.15-0.75c-3.91-0.93-6.33 0.55-7.27 4.46l-15.1 63.23c-0.94 3.91 0.55 6.33 4.46 7.27l3.15 0.75c3.81 0.91 6.19-0.59 7.12-4.5L354.29 126.28z"/>
  <line fill="none" stroke="#CACACA" stroke-width="2" stroke-miterlimit="10" x1="9.53" y1="246.12" x2="329.95" y2="324.22"/>
  <line fill="none" stroke="#CACACA" stroke-width="2" stroke-miterlimit="10" x1="70.05" y1="-0.48" x2="390.47" y2="77.62"/>
</svg>
