<svg xmlns="http://www.w3.org/2000/svg" xmlns:xlink="http://www.w3.org/1999/xlink" version="1.1" x="0" y="0" width="400" height="323" viewBox="0 0 400 323" enable-background="new 0 0 400 323" xml:space="preserve">
  <path d="M62.71 37.15l33.33 7.96 -3.31 13.88 -18.03-4.3 -6.9 28.9 17.31 4.13 -3.31 13.88 -17.31-4.13L54.1 140.95l-15.31-3.66L62.71 37.15z"/>
  <path d="M147.25 57.34l-23.91 100.14 -15.31-3.66 23.91-100.14L147.25 57.34z"/>
  <path d="M183.88 66.08l15.31 3.66L178.59 156l16.88 4.03 -3.31 13.88 -32.19-7.69L183.88 66.08z"/>
  <path d="M271.55 192.87l-16.45-3.93 -3.16-52.62 -11.72 49.07 -15.31-3.66 23.91-100.14 15.31 3.66 -11.55 48.35 27.43-44.56 16.02 3.83 -28.92 45.11L271.55 192.87z"/>
  <path d="M354.33 193.88c-2.96 12.4-10.64 17.12-23.04 14.16l-8.15-1.95c-12.4-2.96-17.12-10.64-14.16-23.04l15.44-64.66c2.96-12.4 10.64-17.12 23.04-14.16l8.15 1.95c12.4 2.96 17.12 10.64 14.16 23.04L354.33 193.88zM354.29 126.28c0.93-3.91-0.51-6.32-4.32-7.23l-3.15-0.75c-3.91-0.93-6.33 0.55-7.27 4.46l-15.1 63.23c-0.94 3.91 0.55 6.33 4.46 7.27l3.15 0.75c3.81 0.91 6.19-0.59 7.12-4.5L354.29 126.28z"/>
  <line fill="none" stroke="#CACACA" stroke-width="2" stroke-miterlimit="10" x1="9.53" y1="246.12" x2="329.95" y2="324.22"/>
  <line fill="none" stroke="#CACACA" stroke-width="2" stroke-miterlimit="10" x1="70.05" y1="-0.48" x2="390.47" y2="77.62"/>
  <path d="M31.3 207.18l-3.35 5.43 -2.5-0.6 10.85-17.23 2.92 0.7 1.92 20.27 -2.59-0.62 -0.6-6.38L31.3 207.18zM37.9 206.76l-0.55-5.83c-0.13-1.32-0.14-2.5-0.16-3.65l-0.06-0.01c-0.54 1.05-1.12 2.11-1.76 3.17l-3.13 4.99L37.9 206.76z"/>
  <path d="M54.12 199.05l-2.65 11.1c-1 4.2 0.44 6.42 2.94 7.02 2.78 0.66 5-0.75 5.99-4.89l2.65-11.1 2.45 0.58 -2.61 10.93c-1.37 5.76-4.97 7.4-9.03 6.43 -3.84-0.92-6.21-3.8-4.82-9.62l2.64-11.04L54.12 199.05z"/>
  <path d="M73.5 203.94c1.53 0.13 3.32 0.38 5.24 0.84 3.48 0.83 5.76 2.23 7.04 4.15 1.3 1.93 1.76 4.33 1.04 7.36 -0.73 3.06-2.27 5.34-4.44 6.64 -2.17 1.33-5.29 1.59-8.93 0.72 -1.72-0.41-3.15-0.84-4.34-1.27L73.5 203.94zM71.97 221.1c0.59 0.26 1.47 0.5 2.42 0.72 5.17 1.24 8.67-0.99 9.88-6.05 1.08-4.42-0.75-7.82-5.87-9.04 -1.25-0.3-2.22-0.41-2.9-0.43L71.97 221.1z"/>
  <path d="M98.6 209.67l-4.48 18.75 -2.42-0.58 4.48-18.75L98.6 209.67z"/>
  <path d="M120.72 224.65c-1.54 6.45-6.28 8.94-11.06 7.79 -4.95-1.18-7.51-5.85-6.16-11.52 1.42-5.95 6.05-8.96 11.06-7.77C119.67 214.38 122.05 219.09 120.72 224.65zM106.1 221.49c-0.96 4 0.36 8.11 4.17 9.02 3.84 0.92 6.85-2.1 7.87-6.35 0.89-3.73-0.13-8.09-4.16-9.05C109.97 214.15 107.08 217.37 106.1 221.49z"/>
  <path d="M126.26 232.97c0.93 0.93 2.38 1.86 4.05 2.26 2.48 0.59 4.23-0.37 4.69-2.26 0.42-1.75-0.34-2.99-2.64-4.57 -2.8-1.82-4.31-3.85-3.68-6.49 0.7-2.92 3.63-4.51 7.28-3.64 1.92 0.46 3.2 1.24 3.93 1.91l-1.14 1.82c-0.53-0.48-1.65-1.33-3.35-1.74 -2.56-0.61-3.9 0.69-4.2 1.97 -0.42 1.75 0.52 2.89 2.86 4.51 2.88 1.98 4.13 3.9 3.47 6.65 -0.69 2.89-3.43 4.88-7.85 3.83 -1.81-0.43-3.66-1.43-4.5-2.34L126.26 232.97z"/>
  <path d="M148.06 221.72c1.21 0.08 2.78 0.28 4.73 0.75 2.39 0.57 4.01 1.55 4.89 2.81 0.82 1.14 1.1 2.64 0.7 4.31 -0.41 1.7-1.22 2.91-2.4 3.66 -1.6 1.06-3.86 1.25-6.22 0.69 -0.72-0.17-1.38-0.36-1.91-0.63l-1.79 7.51 -2.42-0.58L148.06 221.72zM148.32 231.33c0.5 0.26 1.15 0.48 1.96 0.67 2.92 0.7 5.04-0.3 5.66-2.88 0.59-2.48-0.88-4.09-3.55-4.73 -1.06-0.25-1.88-0.36-2.33-0.35L148.32 231.33z"/>
  <path d="M166.72 226.2c1.28 0.04 3.07 0.32 4.74 0.72 2.59 0.62 4.14 1.49 5.06 2.83 0.75 1.06 0.97 2.46 0.62 3.91 -0.59 2.47-2.54 3.74-4.67 3.94l-0.02 0.08c1.33 0.85 1.87 2.39 1.85 4.44 -0.01 2.76 0 4.67 0.22 5.49l-2.5-0.6c-0.18-0.6-0.21-2.31-0.18-4.78 0.06-2.72-0.71-3.93-2.88-4.54l-2.28-0.54 -1.94 8.12 -2.42-0.58L166.72 226.2zM167.1 235.32l2.47 0.59c2.59 0.62 4.57-0.41 5.08-2.55 0.58-2.42-0.92-3.9-3.47-4.53 -1.17-0.28-2.03-0.37-2.44-0.35L167.1 235.32z"/>
  <path d="M188.12 231.05l-4.48 18.75 -2.42-0.58 4.48-18.75L188.12 231.05z"/>
  <path d="M203.43 245.23l-7.29-1.74 -1.61 6.76 8.12 1.94 -0.48 2.03 -10.54-2.52 4.48-18.75 10.12 2.42 -0.48 2.03 -7.7-1.84 -1.42 5.92 7.29 1.74L203.43 245.23z"/>
  <path d="M214.05 257.05l-1.64-20.21 2.62 0.62 0.71 9.93c0.2 2.72 0.35 5.17 0.33 7.49l0.06 0.01c1.04-2.04 2.39-4.22 3.81-6.47l5.38-8.5 2.59 0.62 -11.18 17.15L214.05 257.05z"/>
  <path d="M247.43 254.91c-1.54 6.45-6.28 8.94-11.06 7.79 -4.95-1.18-7.51-5.85-6.16-11.52 1.42-5.95 6.05-8.96 11.06-7.77C246.39 244.63 248.76 249.35 247.43 254.91zM232.81 251.74c-0.96 4 0.36 8.11 4.17 9.02 3.84 0.92 6.85-2.1 7.87-6.35 0.89-3.73-0.13-8.09-4.16-9.05C236.68 244.41 233.79 247.62 232.81 251.74z"/>
  <path d="M256.8 247.71c1.53 0.13 3.32 0.38 5.24 0.84 3.48 0.83 5.76 2.23 7.04 4.15 1.3 1.93 1.76 4.33 1.04 7.36 -0.73 3.06-2.27 5.34-4.44 6.64 -2.17 1.33-5.29 1.59-8.93 0.72 -1.72-0.41-3.15-0.84-4.34-1.27L256.8 247.71zM255.26 264.86c0.58 0.26 1.47 0.5 2.41 0.72 5.17 1.24 8.67-0.99 9.88-6.05 1.08-4.42-0.75-7.82-5.87-9.04 -1.25-0.3-2.22-0.41-2.9-0.43L255.26 264.86z"/>
  <path d="M288.58 274.2c-1 0.23-2.88 0.25-5.16-0.29 -5.29-1.26-8.46-5.55-7-11.7 1.4-5.87 6.33-8.9 12.14-7.51 2.34 0.56 3.69 1.41 4.25 1.9l-1.06 1.83c-0.81-0.66-2.04-1.31-3.6-1.68 -4.39-1.05-7.99 1.06-9.16 5.98 -1.1 4.59 0.84 8.17 5.4 9.26 1.47 0.35 3.05 0.4 4.13 0.16L288.58 274.2z"/>
  <path d="M299.75 271.28l-3.35 5.43 -2.5-0.6 10.84-17.23 2.92 0.7 1.92 20.27 -2.59-0.62 -0.6-6.37L299.75 271.28zM306.34 270.86l-0.55-5.83c-0.13-1.32-0.14-2.5-0.16-3.65l-0.06-0.01c-0.54 1.04-1.12 2.11-1.76 3.17l-3.13 4.99L306.34 270.86z"/>
</svg>
