<?xml version="1.0" encoding="utf-8"?>
<!-- Generator: Adobe Illustrator 19.0.0, SVG Export Plug-In . SVG Version: 6.00 Build 0)  -->
<svg version="1.1" xmlns="http://www.w3.org/2000/svg" xmlns:xlink="http://www.w3.org/1999/xlink" x="0px" y="0px"
	 viewBox="0 0 2000 1560" style="enable-background:new 0 0 2000 1560;" xml:space="preserve">
<style type="text/css">
	.st0{display:none;}
	.st1{display:inline;fill:#222221;}
	.st2{display:inline;}
	.st3{fill:#828282;}
	.st4{fill:#7F7F7C;}
	.st5{fill:#969696;}
	.st6{fill:#00E30D;}
	.st7{display:inline;fill:none;stroke:#000000;stroke-miterlimit:10;}
	.st8{display:inline;fill:#969696;}
	.st9{display:inline;fill:#00E30D;}
	.st10{display:inline;fill:none;stroke:#68FF40;stroke-miterlimit:10;}
	.st11{display:inline;fill:#C62851;stroke:#68FF40;stroke-width:7;stroke-miterlimit:10;}
	.st12{display:inline;fill:#00E30D;stroke:#828282;stroke-miterlimit:10;}
	.st13{fill:none;stroke:#68FF40;stroke-miterlimit:10;}
	.st14{fill:none;stroke:#68FF40;stroke-miterlimit:10;stroke-dasharray:11.8296,11.8296;}
	.st15{fill:#CCE1F0;}
	.st16{fill:#FFFFFF;}
</style>
<g id="versions" class="st0">
	<path class="st1" d="M-3784-1615.8h15.9v6.6h-13.2v2.7h13.2v6.6h-15.9V-1615.8z M-3784-1632.5l14,14h-14V-1632.5z M-3802.6-1634.4
		h15.9v15.9h-15.9V-1634.4z M-3782.1-1634.4h14v14L-3782.1-1634.4z M-3805.4-1637.2v21.4h18.6v15.9h-15.9v-13.2h-2.7v15.9h40v-40
		H-3805.4z"/>
	<g class="st2">
		
			<text transform="matrix(1 0 0 1 -4110.2192 -1418.9692)" style="fill:#848484; font-family:'NeueHaasUnicaPro-Regular'; font-size:54px; letter-spacing:1;">          </text>
	</g>
	<g class="st2">
		<text transform="matrix(1 0 0 1 -4241.7261 -1424.8169)"><tspan x="0" y="0" style="font-family:'NeueHaasUnicaPro-Regular'; font-size:72px; letter-spacing:3;">Stano Filko</tspan><tspan x="41.5" y="74" style="font-family:'NeueHaasUnicaPro-Regular'; font-size:48px; letter-spacing:2;">1937 — 2016</tspan></text>
	</g>
	
		<text transform="matrix(1 0 0 1 -4175.52 -857.7823)" style="display:inline;fill:#828282; font-family:'NeueHaasUnicaPro-Regular'; font-size:48px; letter-spacing:2;">Audioguide</text>
	
		<image style="display:inline;overflow:visible;" width="594" height="606" xlink:href="../../../../Desktop/Screen Shot 2016-07-20 at 13.20.36.png"  transform="matrix(0.625 0 0 0.625 -4228.1421 -1312.3884)">
	</image>
	<text transform="matrix(1 0 0 1 -4326.0044 -1597.1205)" class="st2"><tspan x="0" y="0" class="st4" style="font-family:'NeueHaasUnicaPro-Regular'; font-size:40px; letter-spacing:2;">Sk </tspan><tspan x="59.6" y="0" style="font-family:'NeueHaasUnicaPro-Regular'; font-size:40px; letter-spacing:2;">En </tspan></text>
	<path class="st1" d="M-3050-1615.8h15.9v6.6h-13.2v2.7h13.2v6.6h-15.9V-1615.8z M-3050-1632.5l14,14h-14V-1632.5z M-3068.6-1634.4
		h15.9v15.9h-15.9V-1634.4z M-3048.1-1634.4h14v14L-3048.1-1634.4z M-3071.4-1637.2v21.4h18.6v15.9h-15.9v-13.2h-2.7v15.9h40v-40
		H-3071.4z"/>
	<g class="st2">
		
			<text transform="matrix(1 0 0 1 -3376.2192 -1418.9692)" style="fill:#848484; font-family:'NeueHaasUnicaPro-Regular'; font-size:54px; letter-spacing:1;">          </text>
	</g>
	<g class="st2">
		<text transform="matrix(1 0 0 1 -3466.8704 -1454.4095)"><tspan x="0" y="0" style="font-family:'NeueHaasUnicaPro-Regular'; font-size:56px; letter-spacing:3;">Stano Filko</tspan><tspan x="-28" y="76" style="font-family:'NeueHaasUnicaPro-Regular'; font-size:56px; letter-spacing:3;">1937 — 2016</tspan></text>
	</g>
	
		<text transform="matrix(1 0 0 1 -3469.8301 -839.7448)" class="st8" style="font-family:'NeueHaasUnicaPro-Regular'; font-size:56px; letter-spacing:3;">Audioguide</text>
	
		<image style="display:inline;overflow:visible;" width="594" height="606" xlink:href="../../../../Desktop/Screen Shot 2016-07-20 at 13.20.36.png"  transform="matrix(0.625 0 0 0.625 -3494.1421 -1324.6493)">
	</image>
	
		<image style="display:inline;overflow:visible;" width="604" height="618" xlink:href="../../../../Desktop/Screen Shot 2016-07-20 at 13.20.21.png"  transform="matrix(0.4917 0 0 0.4917 -3457.0149 -2049.1521)">
	</image>
	<text transform="matrix(1 0 0 1 -3580.6658 -1599.9553)" class="st2"><tspan x="0" y="0" class="st5" style="font-family:'NeueHaasUnicaPro-Regular'; font-size:44px; letter-spacing:4;">Sk</tspan><tspan x="57.6" y="0" class="st4" style="font-family:'NeueHaasUnicaPro-Regular'; font-size:44px; letter-spacing:1;">  </tspan><tspan x="80" y="0" style="font-family:'NeueHaasUnicaPro-Regular'; font-size:44px; letter-spacing:4;">En </tspan></text>
	<rect x="-3591.4" y="-1637.2" style="display:inline;fill:none;" width="560" height="880"/>
	
		<text transform="matrix(0 -1 1 0 -2929.769 -1583.7871)" class="st9" style="font-family:'NeueHaasUnicaPro-Regular'; font-size:28px; letter-spacing:2;">120 px</text>
	<rect x="-4365.4" y="-1677.2" class="st7" width="640" height="960"/>
	<rect x="-3631.4" y="-1677.2" class="st7" width="640" height="960"/>
	<rect x="-3651.4" y="-670.1" class="st8" width="102" height="102"/>
	
		<text transform="matrix(1 0 0 1 -3517.769 -604.0772)" class="st8" style="font-family:'NeueHaasUnicaPro-Regular'; font-size:44px; letter-spacing:4;">#969696</text>
	<rect x="-3631.4" y="-1677.2" class="st9" width="40" height="40"/>
	<rect x="-3591.4" y="-1637.2" class="st10" width="560" height="880"/>
	<rect x="-4325.4" y="-1637.2" class="st10" width="560" height="880"/>
	<rect x="-4365.4" y="-1677.2" class="st9" width="40" height="40"/>
	<line class="st11" x1="-3690.4" y1="-1724.4" x2="-4392.7" y2="-685.8"/>
	<line class="st11" x1="-4392.7" y1="-1724.4" x2="-3690.4" y2="-685.8"/>
	<line class="st12" x1="-3557.8" y1="-1585.1" x2="-3600.4" y2="-619.1"/>
	<line class="st12" x1="-3600.4" y1="-619.1" x2="-3395.8" y2="-792.1"/>
	<line class="st10" x1="-3678.2" y1="-1557.2" x2="-2944.6" y2="-1557.2"/>
	<line class="st10" x1="-3678.2" y1="-717.2" x2="-2944.6" y2="-717.2"/>
	<g class="st2">
		<g>
			<line class="st13" x1="-3678.2" y1="-1137.2" x2="-3672.2" y2="-1137.2"/>
			<line class="st14" x1="-3660.3" y1="-1137.2" x2="-2956.5" y2="-1137.2"/>
			<line class="st13" x1="-2950.6" y1="-1137.2" x2="-2944.6" y2="-1137.2"/>
		</g>
	</g>
</g>
<g id="Layer_2">
	<path class="st15" d="M1643.6,742.4c-24.1-23.2-121.3-9.3-150.8-4.4c-11.6-87.5-100.4-176.3-193.6-212.7
		c-100.6-39.3-183.7-53.9-203.9-71.9c-8,9.2-26.7,19-39,24.6c-34.2,15.6-72,28.5-146.1,77.9c-90,60-113.8,136.5-124,227.3
		l-71.5,20.8c0,0-33.5,13-31.2,129.2c1.5,75.2,49.6,270.1,49.6,270.1l66,54.1l0,0l-2.9-4l121.5-88.5c22.6-85.6,18.4-189.1,6.5-231.2
		l9.6-2.7c12.3,43.5,16.7,150.6-6.9,238.2l-0.5,1.7l-0.4,0.3c31.4,24,124.4,57.7,242.4,49.3c36.8-2.6,69.6-8,98.7-15.1l-1-1.2
		c0.3-0.2,27.3-22.7,54-66.6c24.6-40.5,53.9-107.9,53.9-199.6c0-98.6-21-152.6-36.3-192c-1.1-2.9-2.2-5.7-3.3-8.5
		c-12.9-33.6-37.4-69.4-69-100.9c-32.7-32.6-71-58.2-107.8-72.1l3.5-9.4c38.1,14.4,77.6,40.8,111.3,74.3
		c32.6,32.5,57.9,69.6,71.3,104.4c1,2.7,2.1,5.5,3.3,8.4c7.5,19.3,16.8,43.3,24.2,74.8c8.6,36.8,12.8,76.4,12.8,120.8
		c0,94.2-30.2,163.6-55.6,205.2c-16.8,27.6-33.5,46.7-44.2,57.7c113.1-32.1,166.9-92.3,188.3-123.8c12.6-25.3,35-81.2,35-157.6
		c0-30.8-10.2-94-10.3-94.6l9.9-1.6c0.4,2.5,9.4,58,10.4,90.8l89.2-8.3l0.9,10l-90,8.4c-0.3,28.2-3.6,53.4-8.1,74.9l80.9,3.6
		l-0.4,10l-82.7-3.7c-3.8,16-8.1,29.7-12.1,40.7c-0.9,2.5-1.8,4.9-2.7,7.2l108.1,2c0,0,24.1-97.6,41.5-163.4
		C1657.3,838.7,1668.7,766.5,1643.6,742.4z M860.8,814.7l0.8,10l-74.9,6l-0.8-10L860.8,814.7z M747.1,1192.9
		c0,0-47.4-179.4-47.4-254.5c0-88,4.6-111,32.2-115.7c0,0,37.6,8.3,37.6,80.4c0,88.5,29.7,334.1,29.7,334.1L747.1,1192.9z
		 M822.9,1138l-3.4-9.4l84.2-30.2l3.4,9.4L822.9,1138z M819.4,1010.5l79.8-31.4l3.7,9.3l-79.8,31.4L819.4,1010.5z M911.9,890.5
		l-102.1-5.6l0.5-10l102.1,5.6L911.9,890.5z M1553.5,841.5l-2.2-9.8l75.6-16.7l2.2,9.8L1553.5,841.5z M1512.7,784.9l-1-10
		l117.2-11.6l1,10L1512.7,784.9z"/>
	<g>
		<g>
			<path class="st16" d="M2135.6,1337.7c3.2,0,3.2-5,0-5C2132.4,1332.7,2132.4,1337.7,2135.6,1337.7L2135.6,1337.7z"/>
		</g>
	</g>
</g>
<g id="colors">
</g>
<g id="dimensions_notes" class="st0">
	<rect x="-4261.7" y="-1677.2" class="st9" width="40" height="40"/>
	<rect x="-4221.7" y="-1637.2" style="display:inline;fill:none;" width="560" height="870"/>
	
		<text transform="matrix(1 0 0 1 -4221.6831 -1611.5225)" class="st2" style="font-family:'NeueHaasUnicaPro-Regular'; font-size:36px; letter-spacing:27;">	</text>
	<line class="st10" x1="-4308.5" y1="-1557.2" x2="-3574.9" y2="-1557.2"/>
	<line class="st10" x1="-4308.5" y1="-717.2" x2="-3574.9" y2="-717.2"/>
	<g class="st2">
		<g>
			<line class="st13" x1="-4308.5" y1="-1197.2" x2="-4302.5" y2="-1197.2"/>
			<line class="st14" x1="-4290.7" y1="-1197.2" x2="-3586.8" y2="-1197.2"/>
			<line class="st13" x1="-3580.9" y1="-1197.2" x2="-3574.9" y2="-1197.2"/>
		</g>
	</g>
</g>
<g id="kastiel">
</g>
<g id="Layer_1">
</g>
</svg>
