<?xml version="1.0" encoding="utf-8"?>
<!-- Generator: Adobe Illustrator 19.0.0, SVG Export Plug-In . SVG Version: 6.00 Build 0)  -->
<svg version="1.1" id="Layer_2" xmlns="http://www.w3.org/2000/svg" xmlns:xlink="http://www.w3.org/1999/xlink" x="0px" y="0px"
	 viewBox="0 0 2000 1560" style="enable-background:new 0 0 2000 1560;" xml:space="preserve">
<style type="text/css">
	.st0{fill:none;}
	.st1{fill:none;stroke:#FFFFFF;stroke-width:10;stroke-miterlimit:10;}
	.st2{fill:#A27872;}
	.st3{fill:#FFFFFF;}
	.st4{clip-path:url(#SVGID_4_);fill:#BEA09C;}
	.st5{fill:url(#SVGID_7_);}
	.st6{fill:#D0BBB8;}
</style>
<pattern  x="-5232.8" y="-1697.1" width="124.6" height="124.6" patternUnits="userSpaceOnUse" id="New_Pattern_Swatch_2" viewBox="0 -124.6 124.6 124.6" style="overflow:visible;">
	<g>
		<polygon class="st0" points="0,-124.6 124.6,-124.6 124.6,0 0,0 		"/>
		<line class="st1" x1="7.4" y1="-117.2" x2="117.2" y2="-7.4"/>
		<line class="st1" x1="117.2" y1="-117.2" x2="7.4" y2="-7.4"/>
	</g>
</pattern>
<g>
	<path class="st2" d="M1932.5,1209.8l-33-585.1c-0.8-14.4-8.3-27.2-19.3-35.5v-19.1c0-25-20.5-45.5-45.5-45.5h-1012
		c-25,0-45.5,20.5-45.5,45.5v19.1c-11,8.3-18.5,21.2-19.3,35.5l-33,585.1c-1.4,25,17.9,45.4,42.9,45.4h9.5
		c1.4,23.8,21.2,42.9,45.4,42.9h26.8v20.7h193.3c78.8,0,94.7-14.1,97.8-20.7h384.3c3.1,6.6,19,20.7,97.8,20.7H1816v-20.7h18.7
		c24.1,0,44-19.1,45.4-42.9h9.5C1914.6,1255.2,1933.9,1234.8,1932.5,1209.8z"/>
	<path class="st3" d="M1821,1323.8h-198.3c-68.8,0-93-10.7-100.6-20.7h-378.7c-7.6,10-31.8,20.7-100.6,20.7H844.5v-20.7h-21.8
		c-25.1,0-46.2-18.5-49.9-42.9h-5c-13.5,0-25.9-5.3-35-14.9c-9.1-9.6-13.7-22.3-12.9-35.8l33-585.1c0.8-14.5,7.8-28.1,19.3-37.7
		v-16.7c0-27.8,22.6-50.5,50.5-50.5h1012c27.8,0,50.5,22.6,50.5,50.5v16.7c11.5,9.6,18.5,23.1,19.3,37.7l33,585.1
		c0.8,13.5-3.8,26.2-12.9,35.8c-9.1,9.6-21.5,14.9-35,14.9h-5c-3.7,24.4-24.7,42.9-49.9,42.9H1821V1323.8z M1137.5,1293.1h390.6
		l1.4,2.9c1.4,3,12.6,17.9,93.3,17.9H1811v-20.7h23.7c21.4,0,39.1-16.8,40.4-38.2l0.3-4.7h14.2c10.7,0,20.6-4.2,27.7-11.8
		c7.2-7.6,10.8-17.7,10.2-28.4l-33-585.1c-0.7-12.4-7-24-17.3-31.8l-2-1.5v-21.6c0-22.3-18.2-40.5-40.5-40.5h-1012
		c-22.3,0-40.5,18.2-40.5,40.5v21.6l-2,1.5c-10.3,7.8-16.6,19.4-17.3,31.8l-33,585.1c-0.6,10.7,3,20.8,10.2,28.4
		c7.2,7.6,17,11.8,27.7,11.8h14.2l0.3,4.7c1.2,21.4,19,38.2,40.4,38.2h31.8v20.7h188.3c80.7,0,91.9-14.9,93.3-17.9L1137.5,1293.1z"
		/>
</g>
<g>
	<g>
		<defs>
			<rect id="SVGID_1_" x="845.4" y="604.6" width="966.5" height="387.9"/>
		</defs>
		<clipPath id="SVGID_2_">
			<use xlink:href="#SVGID_1_"  style="overflow:visible;"/>
		</clipPath>
	</g>
	<g>
		<defs>
			<rect id="SVGID_3_" x="845.4" y="604.6" width="966.5" height="387.9"/>
		</defs>
		<use xlink:href="#SVGID_3_"  style="overflow:visible;fill:#DAC9C7;"/>
		<clipPath id="SVGID_4_">
			<use xlink:href="#SVGID_3_"  style="overflow:visible;"/>
		</clipPath>
		<circle class="st4" cx="1328.7" cy="916" r="312.7"/>
	</g>
	<g>
		<defs>
			<rect id="SVGID_5_" x="845.4" y="604.6" width="966.5" height="387.9"/>
		</defs>
		<clipPath id="SVGID_6_">
			<use xlink:href="#SVGID_5_"  style="overflow:visible;"/>
		</clipPath>
	</g>
</g>
<path class="st3" d="M1833.6,1299.6H823.8c-26.5,0-48.1-21.6-48.1-48.1V571.1c0-26.5,21.6-48.1,48.1-48.1h1009.8
	c26.5,0,48.1,21.6,48.1,48.1v680.4C1881.7,1278,1860.1,1299.6,1833.6,1299.6z M823.8,526.1c-24.9,0-45.1,20.2-45.1,45.1v680.4
	c0,24.9,20.2,45.1,45.1,45.1h1009.8c24.9,0,45.1-20.2,45.1-45.1V571.1c0-24.9-20.2-45.1-45.1-45.1H823.8z"/>
<g>
	<pattern  id="SVGID_7_" xlink:href="#New_Pattern_Swatch_2" patternTransform="matrix(0.3127 0 0 0.3127 -2161.5459 -2930.7764)">
	</pattern>
	<rect x="845.4" y="604.6" class="st5" width="966.5" height="387.9"/>
	<path class="st3" d="M1813.5,994H843.9V603.1h969.5V994z M846.9,991h963.5V606.1H846.9V991z"/>
</g>
<line class="st0" x1="845.4" y1="992.5" x2="1812" y2="992.5"/>
<rect x="1184" y="1027" class="st6" width="88.4" height="10"/>
<rect x="1283.7" y="1066.6" class="st6" width="112.6" height="10"/>
<rect x="1050.7" y="1105.5" class="st6" width="108.8" height="10"/>
<rect x="1500" y="1105.5" class="st6" width="108.8" height="10"/>
<rect x="1238.6" y="1145.7" class="st6" width="95" height="10"/>
<rect x="1520.1" y="1185.3" class="st6" width="68.7" height="10"/>
<rect x="845.4" y="1228.4" class="st3" width="966.5" height="3"/>
<path class="st3" d="M950.2,1150.3c-22,0-39.9-17.9-39.9-39.9s17.9-39.9,39.9-39.9s39.9,17.9,39.9,39.9S972.2,1150.3,950.2,1150.3z
	 M950.2,1073.6c-20.3,0-36.9,16.5-36.9,36.9s16.5,36.9,36.9,36.9s36.9-16.5,36.9-36.9S970.5,1073.6,950.2,1073.6z"/>
<g>
	<path class="st3" d="M1707.2,1130.3c-22,0-39.9-17.9-39.9-39.9s17.9-39.9,39.9-39.9c22,0,39.9,17.9,39.9,39.9
		S1729.2,1130.3,1707.2,1130.3z M1707.2,1053.6c-20.3,0-36.9,16.5-36.9,36.9s16.5,36.9,36.9,36.9c20.3,0,36.9-16.5,36.9-36.9
		S1727.6,1053.6,1707.2,1053.6z"/>
	<path class="st3" d="M1707.2,1130.3c-22,0-39.9-17.9-39.9-39.9v-7.8c0-22,17.9-39.9,39.9-39.9c22,0,39.9,17.9,39.9,39.9v7.8
		C1747.1,1112.5,1729.2,1130.3,1707.2,1130.3z M1707.2,1045.8c-20.3,0-36.9,16.5-36.9,36.9v7.8c0,20.3,16.5,36.9,36.9,36.9
		c20.3,0,36.9-16.5,36.9-36.9v-7.8C1744.1,1062.3,1727.6,1045.8,1707.2,1045.8z"/>
</g>
<g>
	<path class="st3" d="M950.2,1150.3c-22,0-39.9-17.9-39.9-39.9s17.9-39.9,39.9-39.9c22,0,39.9,17.9,39.9,39.9
		S972.2,1150.3,950.2,1150.3z M950.2,1073.6c-20.3,0-36.9,16.5-36.9,36.9s16.5,36.9,36.9,36.9c20.3,0,36.9-16.5,36.9-36.9
		S970.5,1073.6,950.2,1073.6z"/>
	<path class="st3" d="M950.2,1150.3c-22,0-39.9-17.9-39.9-39.9v-7.8c0-22,17.9-39.9,39.9-39.9c22,0,39.9,17.9,39.9,39.9v7.8
		C990.1,1132.5,972.2,1150.3,950.2,1150.3z M950.2,1065.8c-20.3,0-36.9,16.5-36.9,36.9v7.8c0,20.3,16.5,36.9,36.9,36.9
		c20.3,0,36.9-16.5,36.9-36.9v-7.8C987.1,1082.3,970.5,1065.8,950.2,1065.8z"/>
</g>
<rect x="680" class="st0" width="640" height="1560"/>
</svg>
