<?xml version="1.0" encoding="utf-8"?>
<!-- Generator: Adobe Illustrator 19.0.0, SVG Export Plug-In . SVG Version: 6.00 Build 0)  -->
<svg version="1.1" id="Layer_2" xmlns="http://www.w3.org/2000/svg" xmlns:xlink="http://www.w3.org/1999/xlink" x="0px" y="0px"
	 viewBox="0 0 2000 1560" style="enable-background:new 0 0 2000 1560;" xml:space="preserve">
<style type="text/css">
	.st0{fill:#FFFFFF;}
	.st1{fill:#A0A0A0;}
</style>
<rect x="812.8" y="0.6" class="st0" width="366.4" height="983.9"/>
<path class="st0" d="M812.8,1006.6v35.5c22.8-0.6,34.2,5.7,40.4,12.4c5.7,6.1,7,24.8,15,28.4c10.8,4.8,23.1-0.5,29-3
	c17-7.2,33.5-13.4,44.7-16.4c18.4-4.8,11.5,0.3,27.3-7c4.9-2.3,7.6-5.9,15-7c1.6-0.2,7.4-0.9,15,2c14.3,5.5,13.3,15.5,24,21
	c13.1,6.7,30.8,0,49-7c14.6-5.6,16.3-9.1,23-8c13.7,2.2,13.8,17.8,30,22c1.9,0.5,16.6,4.3,27-3c3.7-2.6,6.4-6.2,11-6
	c4.5,0.2,10.2,4.1,10,4c0,0,2.9-1.8,6-3.7v-64.2H812.8z"/>
<g>
	<path class="st1" d="M1179.1,1070.8c-3.1,1.9-6,3.7-6,3.7c0.2,0.1-5.5-3.8-10-4c-4.6-0.2-7.3,3.4-11,6c-10.4,7.3-25.1,3.5-27,3
		c-16.2-4.2-16.3-19.8-30-22c-6.7-1.1-8.4,2.4-23,8c-18.2,7-35.9,13.7-49,7c-10.7-5.5-9.7-15.5-24-21c-7.6-2.9-13.4-2.2-15-2
		c-7.4,1.1-10.1,4.7-15,7c-15.8,7.3-8.9,2.1-27.3,7c-11.3,3-27.8,9.1-44.7,16.4c-5.9,2.5-18.2,7.8-29,3c-8-3.5-9.3-22.2-15-28.4
		c-6.2-6.6-17.6-13-40.4-12.4v80.4h366.4V1070.8z"/>
	<path class="st1" d="M1196.7,1059.6v150.7h-183.6h-10h-7h-10h-191v-151.8h-10v151.8v10h10h191v7.7c-1.8,0.4-3.7,0.8-5.4,1.4
		l1.4,4.8v216.7l-1.4,4.8c6.2,1.9,12.6,2.8,19.2,2.8c6.6,0,13.2-1,19.4-2.8l-1.4-4.7v-216.7l1.4-4.7c-2-0.6-4.1-1.1-6.1-1.5v-7.6
		h183.6h10v-10v-150.7H1196.7z M996.2,1220.3h7v6.4c-1.1-0.1-2.2-0.1-3.2-0.1c-1.3,0-2.5,0-3.8,0.1V1220.3z"/>
</g>
</svg>
