<?xml version="1.0" encoding="utf-8"?>
<!-- Generator: Adobe Illustrator 19.0.0, SVG Export Plug-In . SVG Version: 6.00 Build 0)  -->
<svg version="1.1" xmlns="http://www.w3.org/2000/svg" xmlns:xlink="http://www.w3.org/1999/xlink" x="0px" y="0px"
	 viewBox="0 0 2000 1560" style="enable-background:new 0 0 2000 1560;" xml:space="preserve">
<style type="text/css">
	.st0{display:none;}
	.st1{display:inline;fill:#222221;}
	.st2{display:inline;}
	.st3{fill:#828282;}
	.st4{fill:#7F7F7C;}
	.st5{fill:#969696;}
	.st6{fill:#00E30D;}
	.st7{display:inline;fill:none;stroke:#000000;stroke-miterlimit:10;}
	.st8{display:inline;fill:#969696;}
	.st9{display:inline;fill:#00E30D;}
	.st10{display:inline;fill:none;stroke:#68FF40;stroke-miterlimit:10;}
	.st11{display:inline;fill:#C62851;stroke:#68FF40;stroke-width:7;stroke-miterlimit:10;}
	.st12{display:inline;fill:#00E30D;stroke:#828282;stroke-miterlimit:10;}
	.st13{fill:none;stroke:#68FF40;stroke-miterlimit:10;}
	.st14{fill:none;stroke:#68FF40;stroke-miterlimit:10;stroke-dasharray:11.8296,11.8296;}
	.st15{fill:#FFFFFF;}
	.st16{fill:none;stroke:#000000;stroke-width:3;stroke-miterlimit:10;}
</style>
<g id="versions" class="st0">
	<path class="st1" d="M-4874.6-1615.8h15.9v6.6h-13.2v2.7h13.2v6.6h-15.9V-1615.8z M-4874.6-1632.5l14,14h-14V-1632.5z
		 M-4893.2-1634.4h15.9v15.9h-15.9V-1634.4z M-4872.6-1634.4h14v14L-4872.6-1634.4z M-4895.9-1637.2v21.4h18.6v15.9h-15.9v-13.2
		h-2.7v15.9h40v-40H-4895.9z"/>
	<g class="st2">
		
			<text transform="matrix(1 0 0 1 -5200.7715 -1418.9692)" style="fill:#848484; font-family:'NeueHaasUnicaPro-Regular'; font-size:54px; letter-spacing:1;">          </text>
	</g>
	<g class="st2">
		<text transform="matrix(1 0 0 1 -5332.2778 -1424.8169)"><tspan x="0" y="0" style="font-family:'NeueHaasUnicaPro-Regular'; font-size:72px; letter-spacing:3;">Stano Filko</tspan><tspan x="41.5" y="74" style="font-family:'NeueHaasUnicaPro-Regular'; font-size:48px; letter-spacing:2;">1937 — 2016</tspan></text>
	</g>
	
		<text transform="matrix(1 0 0 1 -5266.0723 -857.7823)" style="display:inline;fill:#828282; font-family:'NeueHaasUnicaPro-Regular'; font-size:48px; letter-spacing:2;">Audioguide</text>
	
		<image style="display:inline;overflow:visible;" width="594" height="606" xlink:href="../../../../Desktop/Screen Shot 2016-07-20 at 13.20.36.png"  transform="matrix(0.625 0 0 0.625 -5318.6943 -1312.3884)">
	</image>
	<text transform="matrix(1 0 0 1 -5416.5562 -1597.1205)" class="st2"><tspan x="0" y="0" class="st4" style="font-family:'NeueHaasUnicaPro-Regular'; font-size:40px; letter-spacing:2;">Sk </tspan><tspan x="59.6" y="0" style="font-family:'NeueHaasUnicaPro-Regular'; font-size:40px; letter-spacing:2;">En </tspan></text>
	<path class="st1" d="M-4140.6-1615.8h15.9v6.6h-13.2v2.7h13.2v6.6h-15.9V-1615.8z M-4140.6-1632.5l14,14h-14V-1632.5z
		 M-4159.2-1634.4h15.9v15.9h-15.9V-1634.4z M-4138.6-1634.4h14v14L-4138.6-1634.4z M-4161.9-1637.2v21.4h18.6v15.9h-15.9v-13.2
		h-2.7v15.9h40v-40H-4161.9z"/>
	<g class="st2">
		
			<text transform="matrix(1 0 0 1 -4466.7715 -1418.9692)" style="fill:#848484; font-family:'NeueHaasUnicaPro-Regular'; font-size:54px; letter-spacing:1;">          </text>
	</g>
	<g class="st2">
		<text transform="matrix(1 0 0 1 -4557.4224 -1454.4095)"><tspan x="0" y="0" style="font-family:'NeueHaasUnicaPro-Regular'; font-size:56px; letter-spacing:3;">Stano Filko</tspan><tspan x="-28" y="76" style="font-family:'NeueHaasUnicaPro-Regular'; font-size:56px; letter-spacing:3;">1937 — 2016</tspan></text>
	</g>
	
		<text transform="matrix(1 0 0 1 -4560.3823 -839.7448)" class="st8" style="font-family:'NeueHaasUnicaPro-Regular'; font-size:56px; letter-spacing:3;">Audioguide</text>
	
		<image style="display:inline;overflow:visible;" width="594" height="606" xlink:href="../../../../Desktop/Screen Shot 2016-07-20 at 13.20.36.png"  transform="matrix(0.625 0 0 0.625 -4584.6943 -1324.6493)">
	</image>
	
		<image style="display:inline;overflow:visible;" width="604" height="618" xlink:href="../../../../Desktop/Screen Shot 2016-07-20 at 13.20.21.png"  transform="matrix(0.4917 0 0 0.4917 -4547.5669 -2049.1521)">
	</image>
	<text transform="matrix(1 0 0 1 -4671.2178 -1599.9553)" class="st2"><tspan x="0" y="0" class="st5" style="font-family:'NeueHaasUnicaPro-Regular'; font-size:44px; letter-spacing:4;">Sk</tspan><tspan x="57.6" y="0" class="st4" style="font-family:'NeueHaasUnicaPro-Regular'; font-size:44px; letter-spacing:1;">  </tspan><tspan x="80" y="0" style="font-family:'NeueHaasUnicaPro-Regular'; font-size:44px; letter-spacing:4;">En </tspan></text>
	<rect x="-4681.9" y="-1637.2" style="display:inline;fill:none;" width="560" height="880"/>
	
		<text transform="matrix(0 -1 1 0 -4020.321 -1583.7871)" class="st9" style="font-family:'NeueHaasUnicaPro-Regular'; font-size:28px; letter-spacing:2;">120 px</text>
	<rect x="-5455.9" y="-1677.2" class="st7" width="640" height="960"/>
	<rect x="-4721.9" y="-1677.2" class="st7" width="640" height="960"/>
	<rect x="-4741.9" y="-670.1" class="st8" width="102" height="102"/>
	
		<text transform="matrix(1 0 0 1 -4608.3213 -604.0772)" class="st8" style="font-family:'NeueHaasUnicaPro-Regular'; font-size:44px; letter-spacing:4;">#969696</text>
	<rect x="-4721.9" y="-1677.2" class="st9" width="40" height="40"/>
	<rect x="-4681.9" y="-1637.2" class="st10" width="560" height="880"/>
	<rect x="-5415.9" y="-1637.2" class="st10" width="560" height="880"/>
	<rect x="-5455.9" y="-1677.2" class="st9" width="40" height="40"/>
	<line class="st11" x1="-4780.9" y1="-1724.4" x2="-5483.3" y2="-685.8"/>
	<line class="st11" x1="-5483.3" y1="-1724.4" x2="-4780.9" y2="-685.8"/>
	<line class="st12" x1="-4648.3" y1="-1585.1" x2="-4690.9" y2="-619.1"/>
	<line class="st12" x1="-4690.9" y1="-619.1" x2="-4486.3" y2="-792.1"/>
	<line class="st10" x1="-4768.7" y1="-1557.2" x2="-4035.1" y2="-1557.2"/>
	<line class="st10" x1="-4768.7" y1="-717.2" x2="-4035.1" y2="-717.2"/>
	<g class="st2">
		<g>
			<line class="st13" x1="-4768.7" y1="-1137.2" x2="-4762.7" y2="-1137.2"/>
			<line class="st14" x1="-4750.9" y1="-1137.2" x2="-4047" y2="-1137.2"/>
			<line class="st13" x1="-4041.1" y1="-1137.2" x2="-4035.1" y2="-1137.2"/>
		</g>
	</g>
</g>
<g id="Layer_2">
	<path class="st15" d="M1047.5,632.3c-1.2-0.3-2.3-0.8-3.4-1.6l-60.8-43.9c-4.5-3.2-5.5-9.4-2.3-13.9l87.6-122.7l-59.7-42.6
		c-4.5-3.2-5.5-9.5-2.3-13.9l43.6-61c3.2-4.5,9.5-5.5,13.9-2.3l59.7,42.6l44.5-62.2c1.5-2.2,3.9-3.6,6.5-4.1
		c2.6-0.4,5.3,0.2,7.5,1.8l60.8,43.9c4.5,3.2,5.5,9.4,2.3,13.9l-44.2,61.9l59.7,42.6c4.5,3.2,5.5,9.5,2.3,13.9l-43.6,61
		c-3.2,4.5-9.5,5.5-13.9,2.3l-59.7-42.6l-87.9,123c-1.5,2.2-3.9,3.6-6.5,4.1C1050.2,632.7,1048.8,632.7,1047.5,632.3z M1003.1,576.5
		l44.6,32.2l87.8-123c3.2-4.5,9.5-5.5,13.9-2.3l59.7,42.6l32-44.7l-59.7-42.6c-2.2-1.5-3.6-3.9-4.1-6.5c-0.4-2.6,0.2-5.3,1.7-7.5
		l44.3-62l-44.6-32.2l-44.4,62.2c-3.2,4.5-9.5,5.5-13.9,2.3l-59.7-42.6l-32,44.7l59.7,42.6c4.5,3.2,5.5,9.5,2.3,13.9L1003.1,576.5z"
		/>
	<polygon points="672,1111.5 668,1110.3 1273.4,300 1277.5,301.2 	"/>
	<polygon points="1196.2,1242.7 714.9,374.7 719.2,373.8 1200.4,1241.7 	"/>
	<polygon points="566.6,744.7 565.4,742 1348.7,605.2 1349.9,607.9 	"/>
	<polygon points="998.8,1204.2 689.3,911.9 693.1,910.3 1002.5,1202.6 	"/>
	<polygon points="850.4,1252.4 845.9,1252.3 920.6,244.1 925.1,244.2 	"/>
	<polygon points="1298.6,1125.7 626.7,1043.7 627.5,1040.9 1299.5,1122.9 	"/>
	<path class="st15" d="M1410.1,1005.4l-62.7-31l-4.5-69.8c-0.2-3.6-2.3-6.7-5.5-8.3c-3.2-1.6-7-1.3-10,0.6l-58.2,38.8l-56.9-28.1
		c-3.2-1.6-7-1.3-10,0.6s-4.7,5.4-4.4,9l4.1,63.4l-58.2,38.8c-3,2-4.7,5.4-4.4,9c0.2,3.6,2.3,6.7,5.5,8.3l62.7,31l4.5,69.8
		c0.2,3.6,2.3,6.7,5.5,8.3c1.4,0.7,2.9,1,4.4,1c1.9,0,3.9-0.6,5.5-1.7l58.2-38.8l56.9,28.1c1.4,0.7,2.9,1,4.4,1
		c1.9,0,3.9-0.6,5.5-1.7c3-2,4.7-5.4,4.4-9l-4.1-63.4l58.2-38.8c3-2,4.7-5.4,4.4-9C1415.4,1010.1,1413.3,1007,1410.1,1005.4z
		 M1324.1,923.2l2.7,41l-36.8-18.2L1324.1,923.2z M1328.2,987.2l4.1,64l-48,32l-57.5-28.4l-4.1-64l48-32L1328.2,987.2z
		 M1218.9,933.2l31.1,15.4l-28.8,19.2L1218.9,933.2z M1169.3,1026.5l34.1-22.8l2.7,41L1169.3,1026.5z M1230.9,1118.9l-2.7-41
		l36.8,18.2L1230.9,1118.9z M1336.1,1108.9l-31.1-15.4l28.8-19.2L1336.1,1108.9z M1351.6,1038.4l-2.7-41l36.8,18.2L1351.6,1038.4z"
		/>
	<polygon points="1480.3,1286 904.8,318.3 908.8,316.4 1484.3,1284 	"/>
	<polygon points="1362.8,667.1 674.3,472.2 676.2,469.6 1364.7,664.5 	"/>
	<path class="st16" d="M1363.8,1036.1"/>
	<path class="st16" d="M592.6,532.9"/>
	<path d="M961.2,813.4c-3.3-4.4-9.6-5.4-14-2.1c-4.4,3.3-5.4,9.6-2.1,14c13.6,18.3,15.4,43.1,4.7,63.1c-0.2,0.4-0.5,0.8-0.7,1.2
		c-9.4-0.9-22.4,1.4-35.8,7c-13.6,5.7-24.6,13.5-30.5,20.9c-4.4-1.2-8.8-2.8-13-5.1c-16.2-8.7-27.2-24-30.3-42.2
		c-0.5-3-2.4-5.7-5.1-7.1c-2.7-1.5-6-1.6-8.8-0.3c-16.8,7.5-35.7,6.8-51.9-1.9c-6.8-3.7-12.6-8.5-17.3-14.1c4.8-8.2,8.1-21.3,8.5-36
		c0.4-16.8-3.1-31.6-8.6-39.6c11.2-13.5,28-21.5,46.1-21.2c5.5,0.1,10.1-4.4,10.1-9.9c0.1-5.5-4.3-10-9.7-10.1c0,0-0.1,0-0.1,0
		c-29.6-0.4-56.7,15.6-70.6,41.7c-4.3,8-7,16.4-8.4,24.9l-10.2,0.2c-5.5,0.1-9.9,4.6-9.9,10.1c0.1,5.4,4.4,9.7,9.7,9.8
		c0.1,0,0.3,0,0.4,0l9.3-0.1c2.5,25.4,17.2,49.1,41.3,62c18.1,9.7,38.9,12,58.3,6.5c6.3,19.2,19.6,35.2,37.7,45
		c11.2,6,23.3,9,35.3,9.3c7.9,0.2,15.8-0.8,23.3-2.9l4.5,9.7c1.7,3.6,5.1,5.7,8.8,5.8c1.5,0,3-0.3,4.5-0.9c5-2.3,7.2-8.3,4.8-13.3
		l-4.2-9c5.4-3.1,10.5-6.9,15.1-11.4c3.4-3,6.1-6,8-9c2.5-3.3,4.8-6.8,6.9-10.6C981.9,871,979.4,837.8,961.2,813.4z"/>
	<polygon points="1322,910.3 601.7,628.2 604.1,625.7 1324.4,907.9 	"/>
</g>
<g id="colors">
</g>
<g id="dimensions_notes" class="st0">
	<rect x="-5352.2" y="-1677.2" class="st9" width="40" height="40"/>
	<rect x="-5312.2" y="-1637.2" style="display:inline;fill:none;" width="560" height="870"/>
	
		<text transform="matrix(1 0 0 1 -5312.2354 -1611.5225)" class="st2" style="font-family:'NeueHaasUnicaPro-Regular'; font-size:36px; letter-spacing:27;">	</text>
	<line class="st10" x1="-5399" y1="-1557.2" x2="-4665.4" y2="-1557.2"/>
	<line class="st10" x1="-5399" y1="-717.2" x2="-4665.4" y2="-717.2"/>
	<g class="st2">
		<g>
			<line class="st13" x1="-5399" y1="-1197.2" x2="-5393" y2="-1197.2"/>
			<line class="st14" x1="-5381.2" y1="-1197.2" x2="-4677.3" y2="-1197.2"/>
			<line class="st13" x1="-4671.4" y1="-1197.2" x2="-4665.4" y2="-1197.2"/>
		</g>
	</g>
</g>
<g id="kastiel">
</g>
<g id="Layer_1">
</g>
</svg>
