<?xml version="1.0" encoding="utf-8"?>
<!-- Generator: Adobe Illustrator 18.0.0, SVG Export Plug-In . SVG Version: 6.00 Build 0)  -->
<!DOCTYPE svg PUBLIC "-//W3C//DTD SVG 1.1//EN" "http://www.w3.org/Graphics/SVG/1.1/DTD/svg11.dtd">
<svg version="1.1" id="Layer_1" xmlns="http://www.w3.org/2000/svg" xmlns:xlink="http://www.w3.org/1999/xlink" x="0px" y="0px"
	 viewBox="0 0 419.53 595.28" enable-background="new 0 0 419.53 595.28" xml:space="preserve">
<path fill="#EE3343" d="M190.076,12.641c3.969-0.882,7.496,1.764,9.702,2.646c2.206,0.882,4.852,0,8.38,2.646
	c3.528,2.646,16.317,18.523,19.404,22.051c3.087,3.528,14.112,14.553,15.877,18.964c1.764,4.41,1.764,20.728,1.764,20.728
	s48.953,14.554,63.948,44.984c0,0-9.261,9.703-29.107,7.497c-19.846-2.205-32.636-17.641-49.394-23.374
	c-2.247-0.769,2.647,9.702,7.056,13.23c4.41,3.528,14.475,8.538,18.081,8.713c2.205,0.107,9.261,8.486,5.292,19.512
	c-3.969,11.026-14.112,20.728-26.461,22.933c0,0-0.441,13.23-4.41,20.287s-11.907,22.051-11.907,22.051s33.076,11.907,48.071,27.343
	c14.995,15.436,21.609,24.256,27.343,29.989c5.733,5.733,13.23,13.672,14.554,15.877c1.323,2.205,0.441,5.292-1.323,7.938
	c-1.764,2.646-10.584,11.907-16.758,15.877c-6.174,3.969-32.194,7.056-35.722,8.38c-3.528,1.323-38.368,14.994-38.368,14.994
	s-47.188,19.846-50.276,21.169c-3.087,1.323-7.497,3.969-10.143,5.292c-2.646,1.323-10.584,4.852-13.23,7.056
	c-2.646,2.205-7.056,7.497-9.703,9.261c-2.646,1.764-7.938,5.292-10.143,7.938c-2.206,2.646-3.529,8.82-7.056,9.261
	s-4.851-7.497-4.851-13.23s-1.872-12.993,3.528-17.641c51.383-44.232,25.734-22.594,10.143-12.348
	c-5.239,3.442,10.144-17.641,12.349-21.61c2.205-3.969,7.498-8.82,13.672-6.174c6.174,2.646,7.496,3.527,9.702,3.087
	c2.206-0.441,22.934-7.056,32.636-12.348c9.702-5.292,31.313-26.902,41.014-29.107l-28.225-7.939c0,0-0.441,15.876,1.323,21.61
	c1.764,5.733,9.703,40.132,10.584,50.276c0.882,10.144,1.323,20.286,3.969,29.107c2.646,8.821,5.733,15.877,3.969,26.461
	c-1.764,10.584-2.205,16.758-2.205,22.492s2.646,43.66,10.584,61.742c7.938,18.082,17.641,41.014,21.169,46.307
	c3.528,5.292,10.584,9.702,14.994,14.112c4.41,4.41,17.641,11.907,20.287,15.877s5.733,8.821,7.056,11.467
	c1.323,2.646,0.882,4.779-2.646,4.779c-3.529,0-14.994,0.513-23.815-4.779c-8.821-5.292-18.523-7.938-18.523-7.938
	s-10.144,2.646-14.995,3.969c-4.851,1.323-13.672,0.882-14.554-5.292c-0.882-6.175,0.744-11.274,0.762-14.995
	c0.01-2.238-1.643-10.143-1.643-13.671s1.322-13.671-0.883-16.317c-2.205-2.646-23.643-26.801-33.958-56.891
	c-5.292-15.436-3.087-20.287-2.205-29.548c0.882-9.261,2.645-17.2,1.764-20.287c-0.882-3.087-6.173-18.523-7.056-22.051
	c-0.882-3.528-2.205-17.64-5.292-26.02c-3.087-8.38-14.994-37.045-30.43-66.152c-15.436-29.107-11.907-41.015-11.907-41.015
	s-22.934-10.584-19.405-35.722c3.529-25.138,18.081-26.02,22.492-28.225c4.41-2.205,18.082-12.349,20.728-13.23
	c2.646-0.882,9.702-0.441,12.789-1.323c6.175-1.764,2.205-19.846,2.205-19.846s-11.026-2.646-13.23-3.969
	c-2.205-1.323-7.938-1.764-10.584-2.205s-3.087-6.174-3.087-11.467s3.969-14.994,6.174-21.61c2.205-6.615,0.882-14.994,1.764-19.846
	c0.882-4.851,3.969-12.79,3.969-17.641c0-4.851-5.292-16.758-5.292-20.728c0-3.969,0.881-9.261,0.441-14.554
	c-0.441-5.292-0.441-7.056,5.292-13.23c5.733-6.174,0.882-7.498,5.733-9.703c4.851-2.205,7.938-5.733,11.466-7.497
	c3.529-1.764,10.144-2.205,11.467-3.528S190.076,12.641,190.076,12.641z"/>
</svg>
