<?xml version="1.0" encoding="utf-8"?>
<!-- Generator: Adobe Illustrator 18.0.0, SVG Export Plug-In . SVG Version: 6.00 Build 0)  -->
<!DOCTYPE svg PUBLIC "-//W3C//DTD SVG 1.1//EN" "http://www.w3.org/Graphics/SVG/1.1/DTD/svg11.dtd">
<svg version="1.1" id="Layer_1" xmlns="http://www.w3.org/2000/svg" xmlns:xlink="http://www.w3.org/1999/xlink" x="0px" y="0px"
	 viewBox="0 0 360 640" enable-background="new 0 0 360 640" xml:space="preserve">
<line fill="none" stroke="#1D76BB" stroke-width="10" stroke-miterlimit="10" x1="211.487" y1="543.66" x2="217.144" y2="570.218"/>
<line fill="none" stroke="#1D76BB" stroke-width="10" stroke-miterlimit="10" x1="149.227" y1="556.939" x2="148.383" y2="585.394"/>
<line fill="none" stroke="#1D76BB" stroke-width="10" stroke-miterlimit="10" x1="182.998" y1="573.696" x2="182.998" y2="606.894"/>
<line fill="none" stroke="#1D76BB" stroke-width="10" stroke-miterlimit="10" x1="188.853" y1="536.072" x2="188.853" y2="563.895"/>
<line fill="none" stroke="#1D76BB" stroke-width="10" stroke-miterlimit="10" x1="206.558" y1="590.295" x2="211.487" y2="616.971"/>
<line fill="none" stroke="#1D76BB" stroke-width="10" stroke-miterlimit="10" x1="162.295" y1="596.776" x2="158.501" y2="625.864"/>
<line fill="none" stroke="#1D76BB" stroke-width="10" stroke-miterlimit="10" x1="131.943" y1="590.453" x2="125.619" y2="616.971"/>
<line fill="none" stroke="#1D76BB" stroke-width="10" stroke-miterlimit="10" x1="158.501" y1="529.749" x2="162.295" y2="556.939"/>
<line fill="none" stroke="#1D76BB" stroke-width="10" stroke-miterlimit="10" x1="228.057" y1="587.743" x2="234.381" y2="619.682"/>
<g>
	<polygon fill="#1D76BB" points="211.487,338.585 205.107,321.794 206.427,236.832 198.051,214.318 198.482,150.019 
		190.961,133.399 191.772,81.245 183.62,56.46 182.191,14.136 179.449,56.394 170.531,80.915 169.722,133.069 161.689,149.447 
		160.123,213.73 151.05,235.97 149.731,320.934 142.835,337.519 140.522,486.392 147.348,486.498 140.584,519.019 168.461,519.454 
		162.905,486.36 174.854,486.545 186.801,486.731 180.22,519.634 208.096,520.069 202.346,487.352 209.173,487.459 	"/>
</g>
<line fill="none" stroke="#1D76BB" stroke-width="10" stroke-miterlimit="10" x1="131.943" y1="543.66" x2="125.619" y2="570.218"/>
</svg>
